<svg width="1432" height="859" viewBox="0 0 1432 859" fill="none" xmlns="http://www.w3.org/2000/svg">
<path fill-rule="evenodd" clip-rule="evenodd" d="M143.275 0.500631L0.762106 0.500631L0.762106 143.014L128.511 143.014L143.275 128.249L143.275 0.500631ZM158.433 143.014L143.859 128.44L143.859 0.500631L286.372 0.500631V143.014H158.433ZM143.859 157.955L158.216 143.598H286.372L286.372 286.111L143.859 286.111V157.955ZM128.728 143.598L143.275 158.145V286.111H0.762106L0.762106 143.598L128.728 143.598ZM0.261475 0L0.261475 143.097L0.261475 143.514L0.261475 286.194L0.261475 286.612L0.261475 429.291L0.261475 429.708L0.261475 572.388L0.261475 572.806L0.261475 715.486L0.261475 715.903L0.261475 859H143.359H143.776H286.455H286.873H429.553H429.97L572.65 859H573.067H715.747H716.164H858.844H859.261H1001.94H1002.36H1145.04H1145.46H1288.14H1288.55L1431.65 859L1431.65 715.903V572.806V572.388V429.291V286.612V143.514V143.097V0L1288.55 0L1288.14 0L1145.46 0L1145.04 0L1002.36 0L1001.94 0L859.261 0L858.844 0L716.164 0L715.747 0L573.067 0L572.65 0L429.97 0L429.553 0L286.873 0L286.455 0L143.776 0L143.359 0L0.261475 0ZM286.956 0.500631L429.469 0.500631V143.014L286.956 143.014V0.500631ZM572.566 0.500631L430.053 0.500631V143.014H572.566V0.500631ZM573.151 0.500631L715.664 0.500631V143.014L573.151 143.014V0.500631ZM858.76 0.500631L716.247 0.500631V143.014L858.76 143.014V0.500631ZM859.345 0.500631L1001.86 0.500631V143.014H859.345V0.500631ZM1144.95 0.500631L1002.44 0.500631V143.014L1144.95 143.014V0.500631ZM1145.54 0.500631L1288.05 0.500631V143.014L1145.54 143.014V0.500631ZM1431.15 0.500631L1288.64 0.500631V143.014H1431.15V0.500631ZM286.956 143.598L429.469 143.598L429.469 286.111H286.956L286.956 143.598ZM572.566 143.598H430.053L430.053 286.111H558.232L572.566 271.776V143.598ZM587.256 286.111L573.151 272.005V143.598L715.664 143.598V286.111L587.256 286.111ZM573.151 301.481L587.889 286.743L587.84 286.695L715.664 286.695V429.208L573.151 429.208V301.481ZM557.648 286.695L557.599 286.743L572.566 301.711V429.208H430.053V286.695H557.648ZM858.76 143.598L716.247 143.598V286.111H858.76V143.598ZM859.345 143.598H1001.86V286.111H859.345V143.598ZM1144.95 143.598L1002.44 143.598V286.111H1144.95V143.598ZM1145.54 143.598L1288.05 143.598V246.573L1287.81 246.815L1248.51 286.111L1145.54 286.111V143.598ZM1247.93 286.695L1145.54 286.695V415.168L1146.02 414.689L1160.54 429.208L1288.05 429.208V326.914L1287.81 326.672L1248.27 287.13L1247.88 286.743L1247.93 286.695ZM1288.05 326.141L1248.65 286.743L1248.7 286.695H1273.1L1273.05 286.743L1288.05 301.744V326.141ZM1288.64 326.619V429.208H1431.15V286.695H1328.46L1328.51 286.743L1328.12 287.13L1288.64 326.619ZM1327.69 286.695L1327.74 286.743L1288.64 325.846V301.449L1303.34 286.743L1303.29 286.695H1327.69ZM1327.88 286.111H1431.15V143.598H1288.64V246.868L1327.88 286.111ZM1288.64 247.641L1327.11 286.111H1302.71L1288.64 272.038V247.641ZM1288.05 247.347L1249.29 286.111H1273.68L1288.05 271.744V247.347ZM1145.54 444.5L1146.02 444.979L1161.16 429.834L1161.12 429.792H1288.05V572.305H1145.54V444.5ZM1130.91 429.792L1130.87 429.834L1144.95 443.916V572.305H1002.44L1002.44 429.792H1130.91ZM1144.95 415.752L1131.5 429.208H1002.44V286.695H1144.95V415.752ZM0.762106 286.695H143.275L143.275 429.208H0.762106L0.762106 286.695ZM286.372 286.695L143.859 286.695L143.859 429.208L286.372 429.208V286.695ZM286.956 286.695H429.469V429.208H286.956V286.695ZM858.761 286.695H716.248V429.208H858.761V286.695ZM859.345 286.695H1001.86V429.208H859.345V286.695ZM0.762106 429.792H143.275V572.305H0.762106L0.762106 429.792ZM286.372 429.792L143.859 429.792V572.305H246.995L246.81 572.12L247.197 571.733L286.372 532.557V429.792ZM286.372 533.33L247.583 572.12L247.769 572.305H272.166L271.98 572.12L286.372 557.727V533.33ZM286.956 557.144V532.747L287.125 532.578L326.667 572.12L326.481 572.305H302.085L302.27 572.12L287.125 556.975L286.956 557.144ZM286.956 587.095L287.125 587.264L301.5 572.889H325.897L287.125 611.661L286.956 611.492V587.095ZM272.75 572.889L286.372 586.512V610.909L248.353 572.889H272.75ZM247.579 572.889H143.859L143.859 715.402H286.372L286.372 611.682L247.579 572.889ZM286.956 612.266L286.956 715.402H429.469L429.469 572.889H326.671L287.512 612.048L287.125 612.435L286.956 612.266ZM327.255 572.305H429.469V429.792H286.956V531.973L287.125 531.804L287.512 532.191L327.053 571.733L327.44 572.12L327.255 572.305ZM572.566 429.792H430.053V572.305L572.566 572.305L572.566 429.792ZM573.151 429.792L715.664 429.792L715.664 572.305H573.151L573.151 429.792ZM858.76 429.792H716.247L716.247 572.305H858.76L858.76 429.792ZM859.345 429.792H1001.86L1001.86 572.305H859.345L859.345 429.792ZM1431.15 429.792H1288.64V572.305L1431.15 572.305V429.792ZM0.762106 572.889H143.275L143.275 715.402H0.762106L0.762106 572.889ZM572.566 572.889L430.053 572.889L430.053 715.402L572.566 715.402V572.889ZM573.151 572.889H715.664V715.402H573.151V572.889ZM858.76 572.889H716.247V715.402H858.76V572.889ZM859.345 572.889H1001.86V715.402H859.345V572.889ZM1144.95 572.889H1002.44V715.402H1144.95V572.889ZM1145.54 572.889H1288.05V715.402H1145.54V572.889ZM1431.15 572.889L1288.64 572.889V715.402L1431.15 715.402V572.889ZM0.762106 715.986H143.275L143.275 858.499H0.762106L0.762106 715.986ZM286.372 715.986H143.859L143.859 858.499H286.372V715.986ZM286.956 715.986H429.469V858.499H286.956V715.986ZM572.566 715.986L430.053 715.986V858.499L572.566 858.499V715.986ZM573.151 715.986H715.664V858.499H573.151V715.986ZM858.76 715.986H716.247V858.499H858.76V715.986ZM859.345 715.986H1001.86V858.499H859.345V715.986ZM1144.95 715.986H1002.44V858.499H1144.95V715.986ZM1145.54 715.986H1288.05V858.499H1145.54V715.986ZM1431.15 715.986L1288.64 715.986V858.499L1431.15 858.499V715.986Z" fill="url(#paint0_radial_233_10669)" fill-opacity="0.51"/>
<defs>
<radialGradient id="paint0_radial_233_10669" cx="0" cy="0" r="1" gradientUnits="userSpaceOnUse" gradientTransform="translate(715.956 -482.133) rotate(90) scale(1232.9 2054.44)">
<stop stop-color="white"/>
<stop offset="1" stop-color="white" stop-opacity="0"/>
</radialGradient>
</defs>
</svg>
