<svg xmlns="http://www.w3.org/2000/svg" width="46" height="58" viewBox="0 0 46 58" fill="none">
  <path d="M4.36342 56.7365C3.42624 57.1123 2.55054 57.0195 1.73631 56.4581C0.922077 55.8968 0.516123 55.1185 0.518443 54.1233L0.518443 40.445C0.518443 39.5078 0.737659 38.617 1.17609 37.7726C1.61452 36.9306 2.23737 36.2578 3.04464 35.7544L7.20626 33.0299C7.61222 37.057 8.13532 40.5586 8.77557 43.5349C9.41582 46.5111 10.4701 49.906 11.9385 53.7197L4.36342 56.7365ZM16.7508 52.0947C16.0712 52.0947 15.5086 51.8674 15.0632 51.4127C14.6178 50.958 14.2722 50.4199 14.0263 49.7982C12.7736 46.2443 11.8249 42.9596 11.18 39.9439C10.5397 36.9306 10.2196 33.5321 10.2196 29.7486C10.2196 24.1024 11.0895 18.8946 12.8293 14.1252C14.5691 9.35577 17.3064 5.03061 21.0412 1.14968C21.2964 0.848113 21.6049 0.635857 21.9668 0.512911C22.3263 0.389964 22.6929 0.328491 23.0663 0.328491C23.4398 0.328491 23.8063 0.389964 24.1659 0.512911C24.5255 0.635857 24.8351 0.848113 25.095 1.14968C28.8297 5.02829 31.567 9.35229 33.3068 14.1217C35.0466 18.8911 35.9165 24.1012 35.9165 29.7521C35.9165 33.5913 35.6057 36.992 34.984 39.9543C34.3623 42.9166 33.4031 46.1979 32.1064 49.7982C31.8605 50.4199 31.5148 50.958 31.0695 51.4127C30.6241 51.8674 30.0627 52.0947 29.3853 52.0947H16.7508ZM23.0663 30.1453C24.5347 30.1453 25.7712 29.6419 26.7756 28.6352C27.7824 27.6307 28.2858 26.3943 28.2858 24.9259C28.2858 23.4575 27.7824 22.2211 26.7756 21.2166C25.7688 20.2122 24.5324 19.7088 23.0663 19.7065C21.6003 19.7041 20.3638 20.2075 19.3571 21.2166C18.3503 22.2211 17.8469 23.4575 17.8469 24.9259C17.8469 26.3943 18.3503 27.6307 19.3571 28.6352C20.3638 29.6396 21.6003 30.143 23.0663 30.1453ZM41.7032 56.8061L34.128 53.7858C35.5964 49.9721 36.6507 46.5668 37.291 43.5697C37.9312 40.5725 38.4532 37.0581 38.8568 33.0264L43.0219 35.8206C43.8292 36.3239 44.452 36.9967 44.8905 37.8387C45.3312 38.6831 45.5516 39.5739 45.5516 40.5111V54.186C45.5516 55.1834 45.1445 55.9629 44.3303 56.5243C43.516 57.0856 42.6403 57.1784 41.7032 56.8026" fill="white"/>
</svg>