<svg xmlns="http://www.w3.org/2000/svg" width="17" height="17" viewBox="0 0 17 17" fill="none">
  <path fill-rule="evenodd" clip-rule="evenodd" d="M2.50152 7.52287H12.0915C12.2115 7.52287 12.3215 7.57287 12.4115 7.66287L13.9315 9.22287C14.2115 9.51287 14.0115 10.0029 13.6115 10.0029H4.02152C3.90152 10.0029 3.79152 9.95287 3.70152 9.86287L2.18152 8.30287C1.90152 8.01287 2.10152 7.52287 2.50152 7.52287ZM2.18152 5.45287L3.70152 3.89287C3.78152 3.80287 3.90152 3.75287 4.02152 3.75287H13.6015C14.0015 3.75287 14.2015 4.24287 13.9215 4.53287L12.4115 6.09287C12.3315 6.18287 12.2115 6.23287 12.0915 6.23287H2.50152C2.10152 6.23287 1.90152 5.74287 2.18152 5.45287ZM13.9215 12.0629L12.4015 13.6229C12.3115 13.7129 12.2015 13.7629 12.0815 13.7629H2.50152C2.10152 13.7629 1.90152 13.2729 2.18152 12.9829L3.70152 11.4229C3.78152 11.3329 3.90152 11.2829 4.02152 11.2829H13.6015C14.0015 11.2829 14.2015 11.7729 13.9215 12.0629Z" fill="white"/>
</svg>